PathFileType	4	(X/Y/Z)	motion.trc
DataRate	CameraRate	NumFrames	NumMarkers	Units	OrigDataRate	OrigDataStartFrame	OrigNumFrames
25	25	36	9	mm	25	125	249
Frame#	Time	mPelvis	mHipR	mHipL	mKneeR	mKneeL	mAnkleR	mAnkleL	mToesR	mToesL
X1 Y1 Z1 X2 Y2 Z2 X3 Y3 Z3 X4 Y4 Z4 X5 Y5 Z5 X6 Y6 Z6 X7 Y7 Z7 X8 Y8 Z8 X9 Y9 Z9
125	4.711000	-57.881068	27.560119	3006.539822	14.245547	-68.942621	2992.766380	-155.608222	-46.040725	3003.385544	-56.717779	-583.549619	3036.848068	-467.056364	-92.278764	2774.820805	-46.308413	-988.075614	3080.143452	-522.089541	-418.535709	2755.971670	-36.024656	-1047.093987	3032.697678	-580.084562	-465.682209	2688.230753	
126	4.773000	-48.197784	28.162170	3005.186319	24.244448	-68.544611	2991.065979	-145.636231	-44.659939	3001.873255	-53.235020	-579.701543	3036.300659	-470.084786	-68.740085	2764.925957	-46.686444	-984.637678	3080.459595	-529.269755	-391.741961	2739.878416	-36.031380	-1043.968797	3034.067392	-588.047564	-440.012217	2672.812939	
127	4.789000	-39.433245	28.709261	3003.933668	33.326104	-68.162985	2989.533901	-136.579290	-43.416861	3000.435352	-49.946882	-576.221406	3035.731316	-472.822666	-48.238739	2756.118298	-47.021810	-981.230855	3080.626726	-535.619080	-368.620664	2725.539684	-37.181057	-1038.631797	3032.417536	-593.713462	-416.651726	2657.712936	
128	4.820000	-31.504057	29.210819	3002.763510	41.562453	-67.790002	2988.123655	-128.375158	-42.303234	2999.071360	-46.874974	-572.837293	3035.046339	-475.234121	-30.095330	2748.246193	-47.309045	-977.900624	3080.555439	-541.312456	-348.207474	2712.657452	-38.315989	-1033.327937	3030.345440	-598.458886	-396.241486	2644.167900	
129	4.851000	-24.341661	29.676639	3001.678228	48.990965	-67.446195	2986.834526	-120.941609	-41.268811	2997.777939	-43.947227	-569.723547	3034.361601	-477.037340	-14.389144	2741.602421	-47.543082	-974.700212	3080.334187	-542.111576	-334.660381	2705.734015	-38.630765	-1030.315757	3030.241013	-601.399958	-381.340683	2636.713743	
130	4.882000	-17.848020	30.125331	3000.659466	55.718508	-67.103602	2985.649347	-114.201158	-40.305205	2996.552229	-41.208841	-566.832244	3033.653021	-478.032589	-1.609633	2736.344337	-47.681578	-971.693456	3080.022812	-541.108072	-325.206190	2701.746225	-38.834773	-1027.522564	3030.201912	-602.286339	-372.001052	2633.623123	
131	4.929000	-11.966449	30.556418	2999.705315	61.818220	-66.773206	2984.551668	-108.097702	-39.403409	2995.384455	-38.631801	-564.196229	3032.943487	-478.035957	7.383167	2732.709885	-47.733352	-968.754351	3079.594612	-537.747085	-321.966380	2702.010870	-38.944744	-1024.921775	3030.189037	-598.776460	-371.896684	2637.678385	
132	4.945000	-6.617243	30.968459	2998.811007	67.386135	-66.446625	2983.530045	-102.543794	-38.575511	2994.279861	-36.229428	-561.777830	3032.250643	-476.864129	11.996362	2730.852604	-47.639981	-965.785086	3078.976631	-532.149255	-324.596882	2706.025600	-38.916960	-1022.471666	3030.185461	-592.435360	-378.574193	2646.688223	
133	5.007000	-1.764684	31.364664	2997.981310	72.445922	-66.130176	2982.598066	-97.501665	-37.807468	2993.242741	-33.961501	-559.583366	3031.587124	-474.349856	11.653519	2730.834007	-47.473896	-963.250041	3078.518152	-524.023771	-340.549797	2716.648579	-38.830571	-1020.264983	3030.169725	-584.116280	-394.258857	2660.975456	
134	5.023000	2.620446	31.728785	2997.220516	77.018373	-65.837994	2981.752634	-92.938468	-37.106566	2992.272615	-31.691041	-557.324409	3030.841827	-470.587969	6.427960	2732.582331	-47.170144	-960.864007	3078.040123	-515.399694	-359.286219	2728.873014	-38.658753	-1018.205643	3030.066252	-573.026478	-417.703778	2681.364298	
135	5.070000	6.581691	32.063659	2996.524096	81.148081	-65.569349	2980.986834	-88.816211	-36.469150	2991.369247	-29.495738	-555.113733	3030.054331	-465.732485	-5.097940	2735.916615	-46.749163	-958.594084	3077.522039	-505.623400	-384.378523	2744.397640	-38.398199	-1016.282678	3029.926538	-561.424375	-446.208537	2704.264879	
136	5.085000	10.156062	32.376349	2995.878935	84.874362	-65.323405	2980.289459	-85.109524	-35.885755	2990.511894	-27.520018	-553.328276	3029.363394	-460.390329	-19.849088	2740.313530	-46.253704	-956.455648	3077.005386	-492.050588	-419.328898	2767.301321	-38.073774	-1014.495254	3029.776335	-551.055253	-477.577358	2727.008343	
137	5.116000	13.382718	32.661207	2995.281935	88.237204	-65.102316	2979.655981	-81.774622	-35.366379	2989.699602	-25.562052	-551.495135	3028.582335	-454.390854	-39.603271	2745.835781	-45.700669	-954.437673	3076.457977	-479.057342	-453.911901	2789.651394	-37.691675	-1012.809396	3029.533863	-540.547371	-511.453390	2750.263929	
138	5.163000	16.145367	32.927301	2994.660616	91.093227	-64.890385	2979.009390	-78.956902	-34.917265	2988.892555	-23.682332	-549.753249	3027.769804	-447.925031	-60.815778	2751.957417	-45.105219	-952.577829	3075.901747	-466.998070	-489.580661	2811.509609	-37.260361	-1011.250973	3029.252052	-530.291319	-550.229728	2776.398897	
139	5.179000	18.316409	33.168960	2993.964672	93.268670	-64.708121	2978.323460	-76.799981	-34.529358	2987.965345	-21.910144	-548.112571	3026.924849	-439.219445	-95.068991	2761.657238	-44.463325	-950.843096	3075.339079	-455.169946	-530.962884	2834.970236	-36.774531	-1009.810328	3028.929710	-521.237373	-589.688897	2801.602840	
140	5.241000	19.890359	33.334650	2993.184328	94.783507	-64.593934	2977.582216	-75.207241	-34.238402	2986.955643	-20.239465	-546.576858	3026.060581	-429.986328	-130.078092	2771.775484	-43.787267	-949.211776	3074.776411	-448.359817	-557.436883	2847.343683	-36.245655	-1008.472323	3028.587341	-511.426806	-615.136743	2812.679768	
141	5.257000	20.764697	33.381332	2992.298126	95.474049	-64.612843	2976.737738	-74.285462	-34.100309	2985.843897	-18.672721	-545.160532	3025.195360	-419.746995	-168.907419	2782.837391	-43.085616	-947.690248	3074.217558	-442.553163	-582.593858	2857.899427	-35.686698	-1007.237554	3028.230667	-502.314150	-639.355898	2821.595669	
142	5.288000	21.021146	33.314753	2991.300106	95.561482	-64.712301	2975.836039	-74.048124	-34.127470	2984.564066	-17.193265	-543.920875	3024.316072	-409.698218	-207.264617	2793.723106	-42.376820	-946.272373	3073.665380	-433.175236	-625.990033	2876.951456	-35.104897	-1006.099939	3027.868032	-492.468804	-682.032108	2843.494654	
143	5.319000	20.580921	33.095688	2990.149736	94.888754	-64.929426	2974.790573	-74.429408	-34.334447	2983.157158	-15.823158	-542.848527	3023.460865	-398.648947	-247.976765	2805.551291	-41.667312	-944.958627	3073.127985	-424.776405	-667.286038	2893.982410	-34.506854	-1005.054712	3027.502775	-482.928276	-723.252952	2862.538338	
144	5.350000	19.419366	32.749012	2988.855839	93.483008	-65.234058	2973.605156	-75.501941	-34.726109	2981.622219	-14.558609	-541.909277	3022.637367	-387.665182	-288.049072	2817.300081	-40.962413	-943.740368	3072.603941	-417.204648	-705.808520	2908.565760	-33.898834	-1004.089594	3027.140141	-474.306792	-763.384640	2879.133224	
145	5.397000	17.673519	32.337565	2987.437963	91.602281	-65.578744	2972.376108	-77.265047	-35.274755	2979.891300	-13.387006	-541.092634	3021.830559	-376.676887	-326.976478	2828.959703	-40.269207	-942.608833	3072.091818	-409.759492	-742.037714	2921.548605	-33.238649	-1003.204823	3026.771069	-465.924978	-804.234147	2895.846844	
146	5.428000	15.097239	31.814069	2985.777855	88.982299	-65.987132	2970.895290	-79.794325	-36.015265	2978.016376	-12.336621	-540.475428	3021.060467	-366.678506	-361.680895	2839.527845	-39.588977	-941.541195	3071.594000	-402.912766	-777.101696	2932.947397	-32.474779	-1002.399206	3026.427269	-458.528429	-839.866281	2909.600258	
147	5.460000	11.902976	31.187391	2983.963251	85.797451	-66.473648	2969.288826	-82.972564	-36.939483	2976.007462	-11.384584	-539.989531	3020.301104	-357.401460	-392.901301	2849.300385	-38.914740	-940.526068	3071.110249	-397.038639	-806.732595	2941.678524	-31.719644	-1001.649976	3026.098490	-452.110410	-870.887101	2920.467377	
148	5.491000	8.137359	30.439645	2981.960773	82.167611	-67.025758	2967.569351	-86.813428	-38.104974	2973.746538	-10.529063	-539.630294	3019.545794	-348.773718	-421.209902	2858.542204	-38.260404	-939.583600	3070.641756	-391.927123	-832.071185	2948.729277	-30.999878	-1000.964880	3025.783777	-446.439713	-897.851110	2929.597616	
149	5.553000	2.228527	29.264851	2979.154110	76.900482	-67.886263	2965.328932	-92.647523	-39.918870	2970.640898	-9.779524	-539.397180	3018.772602	-340.171546	-452.058107	2869.493246	-37.625592	-938.709259	3070.192337	-387.568325	-854.781210	2954.836369	-30.323191	-1000.343084	3025.474787	-438.761234	-921.344757	2933.705091	
150	5.584000	-4.429224	27.994029	2976.137877	70.797652	-68.820730	2962.860346	-99.107124	-41.868232	2967.332125	-9.143999	-539.304078	3017.930269	-332.720220	-478.426009	2879.058838	-37.009526	-937.898457	3069.762230	-383.725077	-875.487804	2960.401058	-29.674377	-999.781728	3025.170803	-431.683332	-942.663014	2937.076330	
151	5.631000	-12.023870	26.591869	2972.824335	63.998625	-69.900185	2960.222960	-106.671982	-44.118982	2963.565111	-8.661062	-539.345145	3017.006874	-326.321214	-500.996053	2887.386084	-36.416214	-937.152326	3069.353580	-380.296648	-893.822134	2965.311289	-29.057117	-999.272287	3024.869204	-425.054789	-961.556017	2939.419746	
152	5.662000	-20.503741	25.125280	2969.235659	56.416158	-71.044758	2957.356691	-115.085460	-46.527535	2959.451675	-8.369111	-539.593756	3015.912294	-320.856243	-520.363927	2894.688606	-35.853043	-936.467290	3068.970442	-376.845211	-910.109937	2970.014811	-28.329447	-998.818994	3024.578094	-420.374036	-978.188992	2944.115877	
153	5.694000	-30.237829	23.595650	2965.281248	47.759954	-72.267756	2954.127550	-124.697432	-49.120650	2954.936504	-8.346316	-540.010512	3014.555454	-316.085249	-537.324131	2901.090860	-35.314579	-935.836852	3068.605661	-373.743206	-924.636602	2974.254131	-27.649108	-998.407304	3024.295330	-416.172057	-993.064463	2948.398829	
154	5.725000	-41.078251	22.100316	2961.055040	38.100973	-73.537514	2950.642347	-135.587394	-51.815651	2950.053215	-8.566469	-540.548205	3013.014793	-311.898559	-552.354574	2906.742573	-34.798469	-935.261190	3068.258047	-370.946735	-937.690020	2978.138447	-26.968218	-998.043656	3024.021387	-412.420422	-1006.458640	2952.336311	
155	5.756000	-53.090505	20.398419	2956.562281	27.445655	-74.985988	2946.952105	-147.379979	-54.787859	2944.921970	-9.224400	-541.142583	3011.143446	-308.266342	-565.788150	2911.930084	-34.312498	-934.730709	3067.917585	-368.405581	-949.442744	2981.589317	-26.345542	-997.713506	3023.746252	-409.033000	-1018.590927	2955.950499	
156	5.787000	-65.938935	18.800268	2951.897621	15.780874	-76.348864	2943.006992	-159.969121	-57.700884	2939.586639	-10.330040	-541.930199	3008.956671	-305.316329	-577.719331	2916.799068	-33.857130	-934.246242	3067.580223	-366.088480	-959.964275	2984.610081	-25.761411	-997.411788	3023.472309	-405.984402	-1029.415727	2959.206104	
157	5.818000	-80.122076	17.218811	2946.975946	2.971754	-77.729337	2938.802004	-173.676953	-60.615063	2934.003353	-11.953956	-542.872190	3006.395102	-303.058267	-588.080883	2921.345949	-33.446826	-933.814883	3067.282438	-364.019722	-969.194651	2987.142801	-25.216062	-997.138560	3023.200512	-403.286546	-1038.886428	2962.092638	
158	5.881000	-94.694145	15.737671	2942.120075	-10.474725	-78.983061	2934.598446	-187.511876	-63.357674	2928.511143	-14.212320	-544.068336	3003.523827	-301.661462	-596.787333	2925.596476	-33.069547	-933.421254	3066.986561	-362.286955	-977.034807	2989.121437	-24.704697	-996.889651	3022.921801	-400.949806	-1046.956182	2964.589119	
159	5.896000	-109.474301	14.398254	2937.359095	-24.321375	-80.062725	2930.460215	-201.592490	-65.880790	2923.056364	-17.243870	-545.168638	3000.317097	-301.289648	-603.757918	2929.543495	-32.735359	-933.064580	3066.699743	-360.937059	-983.434498	2990.570307	-24.219081	-996.663392	3022.648335	-398.937941	-1053.666830	2966.647148	
160	5.928000	-124.579981	13.146124	2932.698250	-38.635671	-81.042424	2926.381111	-215.803683	-68.228237	2917.726755	-20.827768	-546.276569	2996.926069	-302.114695	-609.041572	2933.259249	-32.429229	-932.734966	3066.401005	-359.991431	-988.343239	2991.496801	-23.759436	-996.454656	3022.377729	-397.300780	-1058.966041	2968.430042	
